<svg width="82.000000" height="87.000000" viewBox="0 0 82 87" fill="none" xmlns="http://www.w3.org/2000/svg" xmlns:xlink="http://www.w3.org/1999/xlink">
	<desc>
			Created with Pixso.
	</desc>
	<defs/>
	<path id="Vector" d="M58.92 16.38C53.12 11.24 45.74 8.87 37.96 9.66C25.44 11.11 15.42 21.25 14.23 33.77C13.44 42.06 16.47 50.1 22.41 55.76C26.1 59.32 28.34 62.48 28.6 67.75L27.42 67.75C26.1 67.75 24.91 68.8 24.91 70.25L24.91 75.39C24.91 76.7 25.97 77.89 27.42 77.89L31.24 77.89L31.24 79.73L27.81 79.73C27.02 79.73 26.49 80.26 26.49 81.05C26.49 81.84 27.02 82.37 27.81 82.37L31.24 82.37L31.24 83.16C31.24 85 32.69 86.58 34.67 86.58L47.32 86.58C49.17 86.58 50.75 85.13 50.75 83.16L50.75 82.37L54.18 82.37C54.97 82.37 55.5 81.84 55.5 81.05C55.5 80.26 54.97 79.73 54.18 79.73L50.75 79.73L50.75 77.89L54.57 77.89C55.89 77.89 57.08 76.84 57.08 75.39L57.08 70.25C57.08 68.93 56.02 67.75 54.57 67.75L53.39 67.75C53.65 62.74 55.76 59.58 60.11 55.23C65.12 50.23 67.89 43.51 67.89 36.4C67.89 28.76 64.73 21.52 58.92 16.38ZM48.11 81.05L48.11 83.29C48.11 83.68 47.85 84.08 47.32 84.08L34.67 84.08C34.27 84.08 33.88 83.82 33.88 83.29L33.88 81.18L33.88 78.02L47.98 78.02L47.98 81.05L48.11 81.05ZM54.44 75.26L49.43 75.26L32.69 75.26L27.68 75.26L27.68 70.51L30.05 70.51L52.07 70.51L54.44 70.51L54.44 75.26ZM58.27 53.52C54.31 57.47 51.01 61.43 50.75 67.88L31.24 67.88C30.98 61.69 28.34 57.87 24.25 53.92C18.85 48.78 16.21 41.54 16.87 34.03C17.92 22.7 26.89 13.48 38.23 12.3C45.21 11.51 51.94 13.61 57.21 18.36C62.35 22.97 65.25 29.55 65.25 36.4C65.25 42.85 62.88 48.91 58.27 53.52Z" fill="#2B59C3" fill-opacity="1.000000" fill-rule="nonzero"/>
	<path id="Vector" d="M51.15 38.11L45.08 35.21L48.25 25.47C48.38 24.94 48.25 24.28 47.72 24.02C47.32 23.62 46.66 23.62 46.14 24.02L30.58 34.82C30.18 35.08 29.92 35.48 30.05 36C30.05 36.53 30.32 36.93 30.84 37.06L36.78 39.96L32.69 49.18C32.43 49.7 32.56 50.36 33.08 50.76C33.35 51.02 33.61 51.02 34.01 51.02C34.27 51.02 34.54 51.02 34.67 50.76L51.28 40.48C51.67 40.22 51.94 39.82 51.94 39.3C51.94 38.77 51.54 38.38 51.15 38.11ZM36.78 46.41L39.68 39.96C39.94 39.3 39.68 38.51 39.02 38.24L34.01 35.87L44.55 28.63L42.31 35.74C42.05 36.4 42.45 37.06 42.97 37.32L47.85 39.69L36.78 46.41Z" fill="#2B59C3" fill-opacity="1.000000" fill-rule="nonzero"/>
	<path id="Vector" d="M42.31 4.66L42.31 0.97C42.31 0.18 41.79 -0.35 41 -0.35C40.2 -0.35 39.68 0.18 39.68 0.97L39.68 4.66C39.68 5.45 40.2 5.97 41 5.97C41.79 5.97 42.31 5.45 42.31 4.66Z" fill="#2B59C3" fill-opacity="1.000000" fill-rule="nonzero"/>
	<path id="Vector" d="M14.76 15.06L12.12 12.43C11.6 11.9 10.81 11.9 10.28 12.43C9.75 12.96 9.75 13.75 10.28 14.27L12.91 16.91C13.18 17.17 13.57 17.3 13.84 17.3C14.1 17.3 14.5 17.17 14.76 16.91C15.29 16.38 15.29 15.59 14.76 15.06Z" fill="#2B59C3" fill-opacity="1.000000" fill-rule="nonzero"/>
	<path id="Vector" d="M1.31 44.43L5 44.43C5.8 44.43 6.32 43.91 6.32 43.12C6.32 42.33 5.8 41.8 5 41.8L1.31 41.8C0.52 41.8 0 42.33 0 43.12C0 43.91 0.52 44.43 1.31 44.43Z" fill="#2B59C3" fill-opacity="1.000000" fill-rule="nonzero"/>
	<path id="Vector" d="M80.68 44.43C81.47 44.43 82 43.91 82 43.12C82 42.33 81.47 41.8 80.68 41.8L76.99 41.8C76.19 41.8 75.67 42.33 75.67 43.12C75.67 43.91 76.19 44.43 76.99 44.43L80.68 44.43Z" fill="#2B59C3" fill-opacity="1.000000" fill-rule="nonzero"/>
	<path id="Vector" d="M69.21 16.91L71.84 14.27C72.37 13.75 72.37 12.96 71.84 12.43C71.32 11.9 70.53 11.9 70 12.43L67.36 15.06C66.83 15.59 66.83 16.38 67.36 16.91C67.62 17.17 68.02 17.3 68.28 17.3C68.55 17.3 68.94 17.17 69.21 16.91Z" fill="#2B59C3" fill-opacity="1.000000" fill-rule="nonzero"/>
</svg>
